<svg id="JS" xmlns="http://www.w3.org/2000/svg" viewBox="0 0 256 256"><defs><style>.cls-1{fill:#f1dd3f;}.cls-2{fill:#333;}</style></defs><title>JS-avatar</title><rect class="cls-1" x="0.02" y="-0.28" width="256" height="256.28"/><path class="cls-2" d="M117,149.71c-0.1,11.51-7.69,20.34-19,22.77-13.76,3-26.25-1.52-33.2-11.9-2.58-3.86-2.58-3.86,1.33-6.26,3.71-2.27,7.44-4.53,11.31-6.89,1.15,1.7,2.18,3.26,3.26,4.79A10.09,10.09,0,0,0,90,156.67c5.46-.19,8.61-3.24,8.74-8.77q0.18-7.85.19-15.71c0-14.92,0-29.84,0-44.76,0-4.41-.19-3.78,3.71-3.81,4.15,0,8.3.05,12.44,0,1.65,0,2.11.57,2.11,2.16C117.12,107.06,117.23,128.39,117,149.71Z"/><path class="cls-2" d="M188.84,161.56c-5.22,7.74-13.16,10.62-22,11.55-1.44.15-2.9,0.15-4.63,0.23-12.86-.28-23.93-4.58-31.36-16.07-1.68-2.6-1.7-2.63,1-4.22,3.38-2,6.86-3.84,10.17-5.94,1.74-1.1,2.69-.89,3.84.84,4.65,7,11.3,9.77,19.56,8.62,3.89-.54,7.13-2.26,8.52-6.21a7.65,7.65,0,0,0-3-8.89,69.82,69.82,0,0,0-7.8-4.33c-5.88-3-12.15-5.42-17.6-9.06a25.29,25.29,0,0,1-7.83-32.95c4.2-7.49,11-11.4,19.36-12.13a50.5,50.5,0,0,1,13.84.85C178,85.22,182.92,90,186.75,96a1.3,1.3,0,0,1-.44,2.14c-3.93,2.5-7.85,5-11.73,7.58-1.37.91-1.93,0.09-2.57-.89-2.78-4.25-6.55-6.46-11.78-5.87-3.18.36-5.59,1.81-6.67,4.83a7.44,7.44,0,0,0,1.85,8.44,19.22,19.22,0,0,0,4.7,3.1c4.91,2.38,9.91,4.55,14.84,6.9a50.1,50.1,0,0,1,5.51,3.11C192.95,133.34,196.81,149.75,188.84,161.56Z"/></svg>