<svg id="php_big" xmlns="http://www.w3.org/2000/svg" viewBox="0 0 256 256"><defs><style>.cls-1{fill:#4f5b93;}.cls-2{fill:#fff;}</style></defs><title>php_v2</title><rect class="cls-1" width="256" height="256"/><path class="cls-2" d="M72,113.45q8.64,0,11.52,3.19t1.37,10.94q-1.57,8.07-6.06,11.52t-13.66,3.45H55.9l5.66-29.1H72ZM35,172H50.17l3.6-18.48h13a46.58,46.58,0,0,0,14.15-1.8,26.8,26.8,0,0,0,10.1-6,30.19,30.19,0,0,0,9.53-17q2.41-12.36-3.63-19.26t-19.2-6.9H48.53Z" transform="translate(0 0)"/><path class="cls-2" d="M113.06,84h15l-3.6,18.48h13.41q12.65,0,17.46,4.41t2.88,14.28L152,153.52H136.67l6-30.76q1-5.25-.75-7.16t-7.55-1.91h-12l-7.75,39.83h-15Z" transform="translate(0 0)"/><path class="cls-2" d="M191.74,113.45q8.64,0,11.52,3.19t1.37,10.94q-1.57,8.07-6.06,11.52t-13.66,3.45h-9.23l5.66-29.1h10.39Zm-37,58.55h15.17l3.6-18.48h13a46.58,46.58,0,0,0,14.15-1.8,26.8,26.8,0,0,0,10.1-6,30.19,30.19,0,0,0,9.53-17q2.41-12.36-3.63-19.26t-19.2-6.9H168.31Z" transform="translate(0 0)"/></svg>
